<svg width="32" height="32" viewBox="0 0 32 32" fill="none" xmlns="http://www.w3.org/2000/svg">
<path d="M29.5469 17.119C29.6036 18.5607 29.1192 19.6506 27.913 20.3349C25.9033 21.4728 23.3574 20.0773 23.2267 17.7716C23.1918 17.2811 23.2085 16.7882 23.2766 16.3012C23.5217 14.723 24.9624 13.5668 26.5107 13.6639C28.2032 13.7687 29.4902 15.0719 29.5488 16.7317C29.5507 16.8874 29.5469 17.0441 29.5469 17.119ZM28.3935 17.2152C28.3935 17.071 28.3935 16.9268 28.3935 16.7836C28.358 15.7264 27.5843 14.9172 26.5156 14.8153C26.0261 14.7778 25.5402 14.9237 25.1524 15.2246C24.7646 15.5255 24.5026 15.96 24.4175 16.4434C24.3467 16.8813 24.3344 17.3267 24.3809 17.7678C24.4102 18.0703 24.5079 18.3622 24.6665 18.6215C24.8252 18.8807 25.0407 19.1006 25.2967 19.2643C25.5528 19.4281 25.8427 19.5315 26.1446 19.5668C26.4465 19.6021 26.7524 19.5683 27.0393 19.468C27.9434 19.1585 28.3951 18.4085 28.3945 17.218L28.3935 17.2152Z" fill="#085045"/>
<path d="M9.07415 17.1506C9.13278 18.5374 8.65992 19.6225 7.47392 20.3145C5.46522 21.4842 2.8885 20.0992 2.75107 17.7782C2.71493 17.2877 2.73136 16.7947 2.80008 16.3077C3.04901 14.7113 4.507 13.5503 6.06783 13.6656C7.76225 13.7915 9.0309 15.0938 9.07415 16.7613C9.078 16.9055 9.07415 17.0496 9.07415 17.1506ZM3.84961 17.1679L3.89382 17.1736C3.89382 17.3303 3.88805 17.486 3.89382 17.6417C3.91208 18.131 4.10891 18.5968 4.44712 18.9509C4.78533 19.3051 5.24152 19.5231 5.72952 19.5639C6.75694 19.6494 7.67094 18.9978 7.85836 17.9858C7.92932 17.5483 7.94611 17.1038 7.90834 16.6623C7.8449 15.683 7.10101 14.9477 6.10051 14.8228C5.64887 14.7758 5.1948 14.8854 4.81439 15.1334C4.43398 15.3813 4.15037 15.7525 4.01107 16.1847C3.91208 16.497 3.90055 16.8382 3.84961 17.1679Z" fill="#085045"/>
<path d="M13.1203 3.64245C13.0636 2.11815 13.5903 0.988852 14.906 0.330497C16.909 -0.670009 19.3069 0.714943 19.4386 2.95431C19.4873 3.5514 19.4481 4.1524 19.3223 4.73811C19.1377 5.46709 18.6951 6.10448 18.0767 6.53228C17.4582 6.96008 16.7057 7.1493 15.9585 7.06493C15.1938 6.98162 14.4851 6.62423 13.9635 6.05884C13.442 5.49345 13.1428 4.75833 13.1213 3.98941C13.1174 3.84236 13.1203 3.6982 13.1203 3.64245ZM14.2736 3.47426C14.2736 3.67321 14.2736 3.81641 14.2736 3.96058C14.2872 4.45099 14.4784 4.9198 14.8116 5.27988C15.1448 5.63996 15.5974 5.86684 16.0853 5.91834C16.5798 5.97298 17.0767 5.83889 17.4766 5.5429C17.8765 5.24691 18.1499 4.81085 18.242 4.32195C18.3108 3.88397 18.3263 3.43926 18.2882 2.99755C18.2574 2.60016 18.108 2.22116 17.8594 1.90964C17.6107 1.59811 17.2743 1.36841 16.8936 1.25027C16.5075 1.12935 16.0939 1.12729 15.7066 1.24434C15.3193 1.3614 14.9761 1.59217 14.7215 1.90671C14.3371 2.38149 14.2323 2.93508 14.2736 3.47426Z" fill="#085045"/>
<path d="M16.1439 7.5166C16.9128 7.58772 17.7105 7.57331 18.4602 7.74534C20.4439 8.20091 21.9278 10.1279 21.9067 12.1011C21.9067 12.4663 21.726 12.7181 21.4261 12.7584C21.2943 12.7843 21.1576 12.7604 21.0424 12.6913C20.9272 12.6223 20.8417 12.513 20.8024 12.3846C20.77 12.2698 20.7541 12.1511 20.7553 12.0319C20.6668 10.8237 20.1296 9.87034 19.0878 9.25043C18.7168 9.02841 18.2737 8.82754 17.8537 8.80544C16.7081 8.74681 15.5471 8.68146 14.4101 8.81505C12.7685 9.00727 11.6152 10.4086 11.5364 12.0616C11.5364 12.0982 11.5364 12.1347 11.5364 12.1703C11.5066 12.5345 11.2682 12.7757 10.9463 12.7671C10.6243 12.7584 10.3802 12.5076 10.3879 12.1424C10.4186 10.6594 11.0251 9.4513 12.188 8.53825C12.9666 7.92161 13.9301 7.58508 14.9233 7.58292C15.3308 7.57715 15.7393 7.58292 16.1477 7.58292L16.1439 7.5166Z" fill="#085045"/>
<path d="M5.7812 21.1826C6.49723 21.2384 7.22766 21.2268 7.92831 21.3643C9.96969 21.7641 11.5401 23.7113 11.5286 25.7469C11.5286 26.2207 11.2114 26.51 10.8039 26.3976C10.4733 26.3014 10.3878 26.0506 10.3705 25.7334C10.2984 24.4648 9.73037 23.4729 8.61549 22.8588C8.19924 22.6223 7.73715 22.4778 7.26034 22.4349C6.26622 22.3665 5.26866 22.364 4.2742 22.4272C2.5644 22.5445 1.2352 23.9737 1.15542 25.6892C1.15542 25.7488 1.15542 25.8094 1.14773 25.8689C1.10929 26.213 0.875748 26.4264 0.552818 26.4168C0.477145 26.4165 0.402315 26.4008 0.332946 26.3706C0.263576 26.3403 0.201133 26.2962 0.149454 26.2409C0.0977753 26.1856 0.057955 26.1204 0.0324489 26.0491C0.00694281 25.9779 -0.00371139 25.9022 0.00114157 25.8267C-0.00889726 24.7594 0.366492 23.7243 1.05835 22.9116C1.99543 21.7968 3.20641 21.2528 4.65768 21.2336C5.02962 21.2336 5.40253 21.2336 5.77448 21.2336L5.7812 21.1826Z" fill="#085045"/>
<path d="M26.2759 21.1826C26.9919 21.2403 27.7175 21.2288 28.422 21.3691C30.4461 21.7747 31.9992 23.7065 32.0002 25.7344C32.0002 26.1602 31.7897 26.4139 31.4322 26.4177C31.0746 26.4216 30.8709 26.188 30.8469 25.7834C30.7306 23.8535 29.4235 22.5099 27.4955 22.4051C26.5958 22.3552 25.6938 22.3609 24.7948 22.4224C23.035 22.5464 21.7078 23.9602 21.6232 25.7123C21.6269 25.8092 21.6176 25.9062 21.5953 26.0006C21.4992 26.3014 21.2849 26.4485 20.9639 26.4139C20.6669 26.3822 20.4651 26.1505 20.4708 25.8084C20.4703 25.1881 20.5981 24.5745 20.8462 24.006C21.0943 23.4375 21.4574 22.9265 21.9125 22.5051C22.8073 21.6536 23.8856 21.2557 25.1129 21.2374C25.4974 21.2374 25.8818 21.2374 26.2663 21.2374L26.2759 21.1826Z" fill="#085045"/>
<path d="M16.3133 31.602C14.03 31.6312 11.7688 31.1526 9.69323 30.2007C9.51063 30.1171 9.29822 29.9643 9.23575 29.7932C9.17328 29.6221 9.23575 29.3655 9.34532 29.2098C9.50486 28.9753 9.77589 28.9897 10.0315 29.0916C10.588 29.3136 11.1349 29.5654 11.7039 29.7461C15.1715 30.8437 18.5786 30.6745 21.9252 29.2386C22.0357 29.1906 22.1433 29.1368 22.2548 29.0935C22.621 28.9522 22.9353 29.0657 23.067 29.3819C23.1986 29.6981 23.0833 29.9979 22.7238 30.1402C21.8886 30.4689 21.0544 30.8129 20.1952 31.0647C18.9344 31.4326 17.6266 31.6136 16.3133 31.602Z" fill="#085045"/>
<path d="M1.50399 13.5898C1.11378 13.5831 0.875428 13.2534 0.966733 12.8334C1.40349 10.785 2.2538 8.84725 3.4656 7.1389C4.59435 5.53243 6.02315 4.15943 7.67329 3.09555C7.83476 2.99175 8.06446 2.88602 8.22881 2.92543C8.39316 2.96483 8.64016 3.16283 8.66419 3.32045C8.67362 3.43291 8.65867 3.54608 8.62035 3.65224C8.58204 3.75839 8.52126 3.85503 8.44217 3.93555C7.99815 4.31999 7.48108 4.61697 7.03224 4.99276C4.51896 7.07835 2.8774 9.70889 2.13927 12.8959C2.02202 13.4043 1.84422 13.5946 1.50399 13.5898Z" fill="#085045"/>
<path d="M31.3488 12.9827C31.3561 13.1269 31.3092 13.2685 31.2172 13.3797C31.1252 13.491 30.9949 13.5636 30.8519 13.5834C30.5434 13.6228 30.3012 13.4594 30.2079 13.1355C30.0388 12.5483 29.9062 11.9486 29.7053 11.3729C28.6548 8.35886 26.7893 5.96764 24.1588 4.16461C24.0627 4.09734 23.957 4.03487 23.8608 3.96279C23.5591 3.73693 23.4889 3.42553 23.6744 3.14777C23.7153 3.08012 23.7703 3.02211 23.8357 2.97774C23.9012 2.93337 23.9754 2.90369 24.0534 2.89072C24.1314 2.87776 24.2112 2.88182 24.2875 2.90263C24.3637 2.92344 24.4346 2.96051 24.4952 3.01129C25.3083 3.6264 26.1559 4.20979 26.8912 4.90947C29.17 7.07675 30.6328 9.72266 31.3122 12.7982C31.3295 12.8703 31.3401 12.9414 31.3488 12.9827Z" fill="#085045"/>
</svg>
